<svg width="100" height="34" viewBox="0 0 100 34" fill="none" xmlns="http://www.w3.org/2000/svg">
<g clip-path="url(#clip0_9418_73866)">
<path d="M26.541 28.9185H27.4935V33.0172H31.0213V33.88H26.5528L26.541 28.9185Z" fill="black"/>
<path d="M36.6527 28.7627C38.7929 28.7627 39.5454 30.045 39.5454 31.3993C39.5476 31.7703 39.471 32.1374 39.3211 32.4755C39.1711 32.8136 38.9513 33.1147 38.6766 33.3583C38.4019 33.6018 38.0789 33.782 37.7296 33.8865C37.3803 33.991 37.0129 34.0175 36.6527 33.964C36.2921 34.0196 35.924 33.9946 35.5738 33.8909C35.2236 33.7871 34.8997 33.6071 34.6246 33.3631C34.3495 33.1192 34.1296 32.8172 33.9803 32.4781C33.831 32.139 33.7558 31.7709 33.7599 31.3993C33.7599 30.081 34.5125 28.7627 36.6527 28.7627ZM38.5929 31.3513C38.5929 30.1529 37.758 29.5896 36.6527 29.5896C35.5473 29.5896 34.7007 30.1529 34.7007 31.3513C34.7007 32.7535 35.7472 33.137 36.6527 33.137C36.8965 33.1717 37.1448 33.1521 37.3805 33.0797C37.6161 33.0072 37.8336 32.8836 38.018 32.7173C38.2024 32.5511 38.3492 32.3461 38.4485 32.1165C38.5477 31.8869 38.597 31.6382 38.5929 31.3873V31.3513Z" fill="black"/>
<path d="M42.7207 28.9185H43.7202L46.9658 32.5138V28.9185H47.883V33.88H47.0363L43.6497 30.1648V33.88H42.7442L42.7207 28.9185Z" fill="black"/>
<path d="M51.375 28.9185H53.7268C55.2555 28.9185 56.4902 29.5896 56.4902 31.3154C56.4902 33.0411 55.3143 33.8321 53.7621 33.8321H51.4103L51.375 28.9185ZM53.28 33.0411C54.9028 33.0411 55.526 32.5378 55.526 31.3873C55.526 30.2368 54.8675 29.7574 53.28 29.7574H52.3157V33.0411H53.28Z" fill="black"/>
<path d="M62.2287 28.7627C64.3689 28.7627 65.1215 30.045 65.1215 31.3993C65.1256 31.7709 65.0504 32.139 64.9011 32.4781C64.7518 32.8172 64.532 33.1192 64.2568 33.3631C63.9817 33.6071 63.6578 33.7871 63.3076 33.8909C62.9574 33.9946 62.5893 34.0196 62.2287 33.964C61.8685 34.0175 61.5011 33.991 61.1518 33.8865C60.8025 33.782 60.4795 33.6018 60.2048 33.3583C59.9301 33.1147 59.7103 32.8136 59.5604 32.4755C59.4104 32.1374 59.3339 31.7703 59.336 31.3993C59.336 30.081 60.0886 28.7627 62.2287 28.7627ZM64.1808 31.3513C64.1808 30.1529 63.3341 29.5896 62.2287 29.5896C61.1234 29.5896 60.2885 30.1529 60.2885 31.3513C60.2792 31.6052 60.3246 31.858 60.4216 32.092C60.5185 32.326 60.6646 32.5355 60.8496 32.7058C61.0346 32.876 61.2539 33.0029 61.4922 33.0774C61.7305 33.1519 61.9819 33.1722 62.2287 33.137C63.1342 33.173 64.1808 32.7895 64.1808 31.3873V31.3513Z" fill="black"/>
<path d="M68.2969 28.9185H69.3082L72.5537 32.5138V28.9185H73.4591V33.88H72.589L69.2141 30.1648V33.88H68.2969V28.9185Z" fill="black"/>
<path d="M15.7926 14.9566V9.70744H4.33913V14.9566C4.32364 15.6512 4.37484 16.3456 4.492 17.03C4.52248 17.3283 4.63144 17.6127 4.80737 17.8532C4.9833 18.0937 5.21967 18.2813 5.49153 18.3962C5.87754 18.4842 6.27191 18.5284 6.66745 18.528V19.0434H0V18.54C0.395987 18.5366 0.790375 18.4883 1.17592 18.3962C1.44688 18.2833 1.68284 18.0979 1.8588 17.8595C2.03476 17.621 2.14418 17.3386 2.17545 17.0419C2.30043 16.3543 2.35951 15.6559 2.35183 14.9566V4.0987C2.36675 3.4002 2.31556 2.70187 2.19897 2.01339C2.16358 1.71625 2.04974 1.43446 1.86957 1.19808C1.6894 0.961693 1.44966 0.779571 1.17592 0.671131C0.791456 0.57289 0.396352 0.52457 0 0.527318L0 0H6.63217V0.539302C6.23576 0.535373 5.84051 0.583712 5.45626 0.683116C5.1919 0.801074 4.96318 0.988748 4.79369 1.22679C4.6242 1.46484 4.52006 1.74464 4.492 2.03736C4.37484 2.72174 4.32364 3.41615 4.33913 4.11068V8.90448H15.7926V4.11068C15.8013 3.41237 15.7502 2.71461 15.6397 2.02538C15.606 1.72955 15.4957 1.44819 15.32 1.2102C15.1444 0.972201 14.9097 0.786144 14.6402 0.671131C14.2557 0.57289 13.8606 0.52457 13.4643 0.527318V0H20.0964V0.527318C19.6998 0.51838 19.3038 0.5668 18.9205 0.671131C18.6495 0.784 18.4136 0.969462 18.2376 1.20787C18.0617 1.44628 17.9522 1.72876 17.921 2.02538C17.8145 2.71095 17.7673 3.40471 17.7799 4.0987V14.9566C17.7673 15.6506 17.8145 16.3444 17.921 17.03C17.9522 17.3266 18.0617 17.6091 18.2376 17.8475C18.4136 18.0859 18.6495 18.2713 18.9205 18.3842C19.3034 18.4899 19.7001 18.5344 20.0964 18.516V19.0434H13.4995V18.54C13.8955 18.5366 14.2899 18.4883 14.6754 18.3962C14.945 18.2812 15.1796 18.0951 15.3553 17.8571C15.531 17.6191 15.6413 17.3378 15.675 17.0419C15.7857 16.3568 15.8369 15.663 15.8278 14.9686L15.7926 14.9566Z" fill="black"/>
<path d="M34.4426 0.754895C33.5458 0.739697 32.6559 0.917584 31.8312 1.27692C31.0065 1.63626 30.2654 2.16896 29.6566 2.8402C28.9422 3.63785 28.3896 4.57151 28.0304 5.58751C27.6712 6.60351 27.5125 7.68184 27.5634 8.76053C27.5281 10.5666 27.9321 12.3536 28.7394 13.9618C29.429 15.3619 30.5199 16.5155 31.8673 17.2695C32.9218 17.8786 34.1124 18.2005 35.3245 18.2043C36.5454 18.2119 37.7465 17.8894 38.8052 17.2695C40.0395 16.5603 41.0105 15.4569 41.5686 14.1296C42.0387 12.9921 42.2748 11.7684 42.2624 10.5342C42.3512 7.98679 41.5419 5.49115 39.9811 3.49934C39.2328 2.56052 38.2726 1.82036 37.1824 1.34214C36.3183 0.957037 35.3857 0.757151 34.4426 0.754895ZM34.7836 -0.000127859C37.0801 -0.0309146 39.3117 0.776785 41.0747 2.27693C42.0459 3.08782 42.8459 4.09069 43.4266 5.22511C44.1049 6.57445 44.452 8.07138 44.4379 9.58746C44.4278 11.3495 43.9217 13.0715 42.9797 14.549C42.0484 16.1171 40.6815 17.3683 39.0522 18.1444C37.3258 18.929 35.4176 19.2024 33.5459 18.9332C31.6743 18.664 29.9148 17.8632 28.4689 16.6224C27.4658 15.7814 26.6615 14.7209 26.1159 13.5195C25.5703 12.3182 25.2974 11.007 25.3174 9.68334C25.3124 7.67312 25.916 5.71026 27.046 4.06261C27.9948 2.67313 29.2952 1.5715 30.809 0.87474C32.0564 0.294221 33.4123 -0.00423584 34.7836 -0.000127859Z" fill="black"/>
<path d="M99.4468 4.88971H98.9294C98.9049 3.83104 98.5275 2.8124 97.8593 2.00145C97.4264 1.54081 96.8895 1.19518 96.2953 0.994753C95.6588 0.756676 94.986 0.634964 94.308 0.635219C93.8187 0.611482 93.3297 0.687206 92.8694 0.857981C92.4091 1.02876 91.9867 1.29117 91.6269 1.62993C91.3103 1.92354 91.0592 2.2831 90.8908 2.68425C90.7224 3.08539 90.6406 3.51874 90.6509 3.95492C90.6416 4.52129 90.7778 5.08029 91.0459 5.57643C91.3141 6.07258 91.7049 6.48862 92.1796 6.78326C92.7464 7.16966 93.3444 7.50643 93.967 7.78996L96.2248 8.83261C97.2524 9.26109 98.1844 9.89704 98.9647 10.7022C99.659 11.5722 100.011 12.6743 99.9524 13.7942C99.9819 14.5184 99.8441 15.2395 99.5499 15.8994C99.2558 16.5593 98.8136 17.1395 98.2591 17.5933C96.8568 18.6423 95.1391 19.1594 93.4026 19.0554C91.838 19.0589 90.2825 18.8122 88.793 18.3243V14.1657H89.3692C89.4437 15.1115 89.7779 16.0169 90.3334 16.7783C90.824 17.2925 91.4197 17.6901 92.0783 17.9428C92.7368 18.1956 93.4419 18.2972 94.1434 18.2404C94.7123 18.2911 95.2853 18.225 95.8287 18.0459C96.372 17.8668 96.8746 17.5784 97.3066 17.1978C97.6504 16.8864 97.9256 16.5044 98.1141 16.0768C98.3026 15.6492 98.4001 15.1858 98.4002 14.717C98.3816 14.0689 98.1986 13.4367 97.8688 12.8822C97.5391 12.3277 97.0739 11.8698 96.5187 11.5531C95.9551 11.1681 95.3657 10.8237 94.7549 10.5224L92.403 9.40786C91.3638 8.98093 90.4345 8.31673 89.6867 7.46638C89.1224 6.71297 88.8204 5.78953 88.8282 4.84177C88.8078 4.13885 88.953 3.44117 89.2517 2.80725C89.5505 2.17333 89.994 1.62166 90.5451 1.19849C91.7574 0.325695 93.2266 -0.0972871 94.7078 4.07677e-05C95.8201 0.0195699 96.9274 0.156118 98.0122 0.407513L99.4115 0.743079L99.4468 4.88971Z" fill="black"/>
<path d="M62.9696 11.2895C62.5592 10.616 61.9729 10.0724 61.2763 9.71958C60.4016 9.32061 59.4675 9.07351 58.5129 8.98852C61.2331 8.06971 62.5894 6.47178 62.5815 4.19473C62.5801 3.62918 62.4621 3.07025 62.2352 2.55413C62.0083 2.038 61.6776 1.5762 61.2645 1.1986C60.1263 0.320646 58.7136 -0.105327 57.2899 0.000155443H49.6935V0.527473C49.9858 0.532868 50.277 0.564955 50.5637 0.623349C50.9271 0.725017 51.2436 0.954213 51.4574 1.27051C51.9121 2.15374 52.0964 3.15567 51.9865 4.14679V14.9328C51.9962 15.6232 51.945 16.3131 51.8337 16.9942C51.8009 17.2962 51.6915 17.5844 51.5162 17.8302C51.3409 18.0761 51.1059 18.2712 50.8341 18.3963C50.4529 18.5115 50.0553 18.5601 49.6582 18.5402V19.0675H57.0782C59.5947 19.0675 61.4291 18.3484 62.5698 16.8863C63.272 16.0159 63.6508 14.9211 63.6399 13.7943C63.6617 12.9105 63.4286 12.0397 62.9696 11.2895ZM54.0914 1.79783C54.0886 1.63995 54.121 1.48348 54.1862 1.34023C54.2514 1.19699 54.3476 1.0707 54.4677 0.970899C55.0248 0.676502 55.6546 0.555635 56.2786 0.623349C56.8521 0.600484 57.4242 0.694732 57.9614 0.900547C58.4985 1.10636 58.9899 1.41959 59.4066 1.8218C59.8509 2.24694 60.2037 2.76158 60.4426 3.33306C60.6815 3.90453 60.8012 4.52037 60.7941 5.1415C60.7941 7.5384 59.1361 8.73685 55.82 8.73685H54.0209V2.7446C54.0914 2.14538 54.0209 1.95363 54.0914 1.79783ZM60.5237 17.15C59.5783 17.9529 58.3791 18.3787 57.1488 18.3484H56.2904C55.9297 18.3506 55.5701 18.3063 55.2203 18.2166C54.9521 18.0995 54.7187 17.9129 54.5434 17.6753C54.368 17.4377 54.2568 17.1574 54.2208 16.8623C54.128 16.2959 54.0808 15.7228 54.0797 15.1486V9.45592H55.8788C57.4612 9.34253 59.0238 9.86767 60.2297 10.918C60.6994 11.3833 61.0686 11.9434 61.3137 12.5626C61.5587 13.1817 61.6741 13.8461 61.6526 14.5134C61.6803 15.0182 61.5866 15.5223 61.3796 15.9818C61.1726 16.4413 60.8586 16.8423 60.4649 17.15H60.5237Z" fill="black"/>
<path d="M82.4325 11.2895C82.0222 10.616 81.4358 10.0724 80.7392 9.71958C79.865 9.3191 78.9307 9.07194 77.9758 8.98852C80.6961 8.06971 82.0523 6.47178 82.0445 4.19473C82.043 3.62918 81.925 3.07025 81.6981 2.55413C81.4713 2.038 81.1406 1.5762 80.7274 1.1986C79.5892 0.320646 78.1765 -0.105327 76.7528 0.000155443H69.1564V0.527473C69.4487 0.532868 69.7399 0.564955 70.0266 0.623349C70.39 0.725017 70.7065 0.954213 70.9203 1.27051C71.3806 2.15173 71.5653 3.15546 71.4494 4.14679V14.9328C71.4651 15.6234 71.4139 16.3138 71.2966 16.9942C71.2638 17.2979 71.1531 17.5874 70.9756 17.8336C70.798 18.0797 70.5599 18.2739 70.2853 18.3963C69.9041 18.5115 69.5065 18.5601 69.1094 18.5402V19.0675H76.5294C79.0459 19.0675 80.8803 18.3484 82.0209 16.8863C82.7189 16.0142 83.0936 14.9196 83.0793 13.7943C83.1088 12.9129 82.884 12.042 82.4325 11.2895ZM73.4955 1.79783C73.4927 1.63995 73.5251 1.48348 73.5903 1.34023C73.6555 1.19699 73.7518 1.0707 73.8718 0.970899C74.4461 0.664654 75.0982 0.543452 75.7416 0.623349C76.315 0.600484 76.8871 0.694732 77.4243 0.900547C77.9615 1.10636 78.4528 1.41959 78.8695 1.8218C79.3198 2.2524 79.6761 2.77481 79.9151 3.35504C80.1542 3.93526 80.2707 4.56029 80.2571 5.18944C80.2571 7.58634 78.599 8.78479 75.2829 8.78479H73.4955V2.79254C73.4955 2.14538 73.4838 1.95363 73.4955 1.79783ZM79.9631 17.15C79.0235 17.955 77.8271 18.3813 76.6 18.3484H75.7416C75.3808 18.3506 75.0213 18.3063 74.6715 18.2166C74.4034 18.1009 74.1705 17.9144 73.9969 17.6764C73.8232 17.4383 73.7151 17.1573 73.6837 16.8623C73.5803 16.2972 73.5292 15.7234 73.5308 15.1486C73.5308 12.5959 73.5308 9.45592 73.5308 9.45592H75.2594C76.8381 9.34313 78.3969 9.86838 79.5986 10.918C80.0683 11.3833 80.4375 11.9434 80.6825 12.5626C80.9275 13.1817 81.043 13.8461 81.0214 14.5134C81.0663 15.0072 80.9936 15.5048 80.8093 15.9639C80.6251 16.4229 80.3348 16.8298 79.9631 17.15Z" fill="black"/>
</g>
<defs>
<clipPath id="clip0_9418_73866">
<rect width="100" height="34" fill="white"/>
</clipPath>
</defs>
</svg>
